<svg width="116" height="55" fill="none" xmlns="http://www.w3.org/2000/svg">
  <path d="M87.1 37.3v6.9h3.3c1.3 0 2.3-.3 3.1-1 .8-.7 1.2-1.6 1.2-2.7a3 3 0 0 0-1.1-2.4c-.7-.6-1.8-.9-3.1-.9h-3.4v.1Zm12.8 17.4h-3.3L93 49.3a9 9 0 0 0-1.9-2.2c-.6-.4-1.3-.6-2.1-.6h-2v8.2h-2.8V35.1h6.5a8 8 0 0 1 4.9 1.4c1.2.9 1.8 2.2 1.8 3.9 0 2.7-1.6 4.5-4.8 5.3v.1a4 4 0 0 1 1.5 1c.4.4 1 1.1 1.7 2.2l4.1 5.7Zm-36-9.8a8 8 0 0 0 2 5.7c1.3 1.4 3 2.1 5.2 2.1a7 7 0 0 0 5.4-2.1c1.3-1.4 2-3.3 2-5.8s-.6-4.5-1.9-5.9a6.7 6.7 0 0 0-5.2-2.1c-2.2 0-4 .7-5.3 2.2a8.5 8.5 0 0 0-2.2 5.9Zm-2.9.2c0-3.2.9-5.7 2.8-7.5 1.9-1.9 4.4-2.8 7.6-2.8 3 0 5.4.9 7.2 2.7a9.7 9.7 0 0 1 2.7 7.1c0 3.2-.9 5.7-2.8 7.6A10 10 0 0 1 71 55c-3 0-5.5-.9-7.3-2.7a10 10 0 0 1-2.7-7.2Zm-.4-7.8h-6.2v17.3h-2.8V37.3h-6.2v-2.2h15.1v2.2h.1Zm-33.3 7.6a8 8 0 0 0 2 5.7c1.3 1.4 3 2.1 5.2 2.1a7 7 0 0 0 5.4-2.1c1.3-1.4 2-3.3 2-5.8s-.6-4.5-1.9-5.9a6.7 6.7 0 0 0-5.2-2.1c-2.2 0-4 .7-5.3 2.2a8.5 8.5 0 0 0-2.2 5.9Zm-2.9.2c0-3.2.9-5.7 2.8-7.5 1.9-1.9 4.4-2.8 7.6-2.8 3 0 5.4.9 7.2 2.7a9.7 9.7 0 0 1 2.7 7.1c0 3.2-.9 5.7-2.8 7.6a10 10 0 0 1-7.5 2.8c-3 0-5.5-.9-7.3-2.7a10.5 10.5 0 0 1-2.7-7.2Zm-5 9.6v-13l.2-3.9h-.1l-.6 2-7.1 14.9h-1.5L3.3 40c-.2-.3-.4-1-.6-2.1h-.2l.1 4v12.9H0V35.1h3.7L10 48.5l1 2.4h.1l1-2.5L18.5 35h3.6v19.6h-2.7v.1Zm82.6-3.8a9 9 0 0 0 2.6 1.3c1.1.3 2.1.5 3 .5 2.9 0 4.4-1 4.4-2.9 0-.5-.2-1-.5-1.4-.3-.4-.7-.8-1.3-1.1l-3.1-1.5c-2.1-1-3.5-1.8-4.1-2.7-.7-.8-1-1.8-1-2.8 0-1.6.7-2.8 2.1-3.8a9.7 9.7 0 0 1 5.3-1.4c2.1 0 3.6.2 4.6.7v2.7a8.8 8.8 0 0 0-4.8-1.2c-1.3 0-2.3.2-3.1.7-.8.5-1.2 1.2-1.2 2s.3 1.4.8 1.9a23 23 0 0 0 3.6 2c2 .9 3.5 1.8 4.3 2.7.8.9 1.2 1.9 1.2 3 0 1.7-.7 3-2 3.9a9.7 9.7 0 0 1-5.5 1.3l-2.9-.3a7.4 7.4 0 0 1-2.4-.8v-2.8Z" fill="#000"/>
  <path fill-rule="evenodd" clip-rule="evenodd" d="M32 .6h-9c-.7 0-.8 0-.8.8v18.4c0 1.2-1.1 2.7-2.8 2.7l-5.7.1a3 3 0 0 1-3-3v-1.8c0-.4-.1-.6-.5-.6H.6c-.4 0-.5.2-.5.6v2.3c0 4.2 3.9 8.8 9.2 8.8h13.8c5.6 0 9.6-4.1 9.6-9.3V1.5c.1-.7-.1-.9-.7-.9ZM96.3 0c8.7 0 16.1 4.1 18.9 9.8.5 1.1-.2 1.1-.8 1.1h-10.2c-.6 0-.9-.2-1.2-.7a8.4 8.4 0 0 0-6.6-3.1c-4.6 0-8.3 3.5-8.3 7.7s3.7 7.7 8.3 7.7c2.7 0 5.1-1.2 6.6-3 .4-.5.7-.7 1.3-.7h10.3c.7 0 1.2.2.8 1-2.8 5.8-10.2 9.9-19 9.9-11.1 0-20.1-6.7-20.1-14.9C76.2 6.7 85.2 0 96.3 0ZM54.9 10.3l-11 18.4c-.2.4-.3.4-.6.4h-9.9c-.4 0-.6-.2-.3-.8l16-26.2C49.8 1 50.2.8 51.3.8h8.4c1.3 0 1.5.1 2.2 1.3l15.7 26c.6 1 .6 1-.8 1h-8.4c-1.1 0-1.3-.2-1.7-.9l-2.3-3.8H50.2c-.9 0-1.2.1-.8-.6l2.9-4.9c.4-.8.5-.7 1.5-.7h6.9L56 10.3c-.3-.8-.8-.7-1.1 0Z" fill="#CC000E"/>
</svg>