<svg xmlns="http://www.w3.org/2000/svg">
  <symbol id="menu" viewBox="0 0 18 12" fill="none">
    <path d="M1 12H17C17.55 12 18 11.55 18 11C18 10.45 17.55 10 17 10H1C0.45 10 0 10.45 0 11C0 11.55 0.45 12 1 12ZM1 7H17C17.55 7 18 6.55 18 6C18 5.45 17.55 5 17 5H1C0.45 5 0 5.45 0 6C0 6.55 0.45 7 1 7ZM0 1C0 1.55 0.45 2 1 2H17C17.55 2 18 1.55 18 1C18 0.45 17.55 0 17 0H1C0.45 0 0 0.45 0 1Z" fill="currentColor"/>
  </symbol>
  <symbol id="close" viewBox="0 0 11 10" fill="none">
    <path d="m9.5 1-8 8M1.5 1l8 8" stroke="currentColor" stroke-width="2" stroke-linecap="round" stroke-linejoin="round"/>
  </symbol>
  <symbol id="facebook" viewBox="0 0 16 16" fill="none">
    <path d="M15.416 8.127a7.308 7.308 0 1 0-8.442 7.2v-5.094H5.108V8.127h1.866V6.52c0-1.83 1.086-2.844 2.754-2.844a10.53 10.53 0 0 1 1.626.15v1.8h-.918a1.068 1.068 0 0 0-1.2 1.146V8.14h2.034l-.312 2.088H9.236v5.107a7.285 7.285 0 0 0 6.18-7.2v-.007Z" fill="currentColor"/>
  </symbol>
  <symbol id="instagram" viewBox="0 0 12 12" fill="none">
    <path d="M6 0C4.372 0 4.168.007 3.528.036c-.64.03-1.075.13-1.457.279-.394.153-.73.358-1.063.692A2.945 2.945 0 0 0 .315 2.07c-.149.381-.25.817-.279 1.456C.008 4.166 0 4.37 0 6c0 1.63.007 1.833.036 2.473.03.64.13 1.075.279 1.457.153.394.358.73.692 1.063.333.333.668.539 1.063.692.381.149.817.25 1.456.279.64.029.844.036 2.474.036 1.63 0 1.833-.007 2.473-.036.64-.03 1.076-.13 1.457-.279a2.934 2.934 0 0 0 1.063-.692c.333-.334.538-.669.692-1.063.147-.382.249-.818.279-1.456C11.992 7.834 12 7.63 12 6c0-1.63-.008-1.834-.036-2.474-.03-.639-.132-1.075-.279-1.456a2.946 2.946 0 0 0-.693-1.063A2.933 2.933 0 0 0 9.93.315C9.547.167 9.111.065 8.472.036 7.832.007 7.63 0 6 0H6Zm-.538 1.081h.539c1.602 0 1.791.006 2.424.035.585.027.903.124 1.114.206.28.11.48.24.69.45.21.21.34.41.449.69.082.21.18.528.206 1.113.029.632.035.822.035 2.424 0 1.601-.006 1.791-.035 2.423-.027.585-.124.903-.206 1.114-.11.28-.24.48-.45.69-.21.21-.409.34-.689.448-.211.083-.529.18-1.114.207-.632.029-.822.035-2.424.035-1.603 0-1.792-.006-2.425-.035-.585-.027-.902-.125-1.114-.207a1.858 1.858 0 0 1-.69-.449 1.86 1.86 0 0 1-.45-.69c-.081-.21-.18-.528-.206-1.113-.028-.633-.034-.823-.034-2.425 0-1.602.006-1.791.034-2.424.027-.585.125-.902.207-1.114.109-.28.239-.48.449-.69.21-.21.41-.34.69-.449.211-.082.529-.18 1.114-.206.554-.025.768-.033 1.886-.034v.001Zm3.741.997a.72.72 0 1 0 0 1.44.72.72 0 0 0 0-1.44Zm-3.202.84a3.081 3.081 0 1 0 0 6.164 3.081 3.081 0 0 0 0-6.163ZM6 4a2 2 0 1 1 0 4 2 2 0 0 1 0-4Z" fill="currentColor"/>
  </symbol>
  <symbol id="arrow-right" viewBox="0 0 32 14" fill="none">
    <path d="M1.2 7h28.6M22.85 1l7.35 6-7.35 6" stroke="currentColor" stroke-width="2" stroke-linecap="round" stroke-linejoin="round"/>
  </symbol>
   <symbol id="close" viewBox="0 0 11 10" fill="none">
    <path d="m9.5 1-8 8M1.5 1l8 8" stroke="currentColor" stroke-width="2" stroke-linecap="round" stroke-linejoin="round"/>
  </symbol>
</svg>