<svg width="80" height="80" viewBox="0 0 80 80" fill="none" xmlns="http://www.w3.org/2000/svg">
<path d="M59.9381 47.7314V52.5101H62.2091C63.1037 52.5101 63.7918 52.3023 64.3423 51.8175C64.8929 51.3327 65.1681 50.7094 65.1681 49.9476C65.1763 49.6308 65.1123 49.3163 64.9811 49.0282C64.8499 48.7401 64.6549 48.4861 64.4111 48.2854C63.9294 47.8699 63.1725 47.6621 62.2779 47.6621H59.9381V47.7314ZM68.7465 59.7819H66.4756L63.9983 56.0421C63.6473 55.4663 63.2057 54.9517 62.6908 54.5185C62.2779 54.2415 61.7962 54.103 61.2456 54.103H59.8693V59.7819H57.9425V46.2078H62.4155C63.6145 46.1524 64.7985 46.4929 65.7875 47.1774C66.6132 47.8007 67.0261 48.701 67.0261 49.8783C67.0261 51.7482 65.9251 52.9949 63.723 53.5489V53.6182C64.1149 53.767 64.468 54.0038 64.7552 54.3107C65.0305 54.5877 65.4434 55.0725 65.9251 55.8344L68.7465 59.7819ZM43.973 52.9949C43.9015 54.4412 44.3956 55.8582 45.3493 56.9424C46.2439 57.912 47.4138 58.3968 48.9277 58.3968C49.6144 58.4354 50.3013 58.3256 50.9422 58.0747C51.5832 57.8239 52.1634 57.4378 52.6437 56.9424C53.5383 55.9729 54.02 54.657 54.02 52.9256C54.02 51.1942 53.6071 49.8091 52.7125 48.8395C52.2559 48.3513 51.6996 47.9685 51.0818 47.7174C50.4641 47.4663 49.7996 47.353 49.1341 47.3851C47.6202 47.3851 46.3815 47.8699 45.4869 48.9088C44.4811 50.0255 43.9393 51.488 43.973 52.9949ZM41.9773 53.1334C41.9773 50.9172 42.5967 49.1858 43.9042 47.9392C45.2117 46.6233 46.9321 46 49.1341 46C51.1986 46 52.8502 46.6233 54.0888 47.8699C54.7113 48.5216 55.1967 49.2929 55.516 50.1378C55.8353 50.9828 55.9818 51.8838 55.9469 52.7871C55.9469 55.0033 55.3275 56.7347 54.02 58.0505C53.3389 58.7141 52.5288 59.2289 51.6407 59.5626C50.7525 59.8963 49.8055 60.0417 48.8589 59.9897C46.7944 59.9897 45.074 59.3664 43.8354 58.1198C43.214 57.4532 42.73 56.6693 42.4111 55.8135C42.0922 54.9577 41.9448 54.0468 41.9773 53.1334ZM41.7021 47.7314H37.4355V59.7127H35.5087V47.7314H31.2422V46.2078H41.6333V47.7314H41.7021ZM18.7866 52.9949C18.7151 54.4412 19.2091 55.8582 20.1629 56.9424C21.0575 57.912 22.2274 58.3968 23.7413 58.3968C24.428 58.4354 25.1149 58.3256 25.7558 58.0747C26.3968 57.8239 26.977 57.4378 27.4573 56.9424C28.3519 55.9729 28.8336 54.657 28.8336 52.9256C28.8336 51.1942 28.4207 49.8091 27.5261 48.8395C27.0695 48.3513 26.5132 47.9685 25.8954 47.7174C25.2777 47.4663 24.6132 47.353 23.9477 47.3851C22.4338 47.3851 21.1951 47.8699 20.3005 48.9088C19.2947 50.0255 18.7528 51.488 18.7866 52.9949ZM16.7909 53.1334C16.7909 50.9172 17.4103 49.1858 18.7178 47.9392C20.0253 46.6233 21.7456 46 23.9477 46C26.0122 46 27.6638 46.6233 28.9024 47.8699C29.5249 48.5216 30.0103 49.2929 30.3296 50.1378C30.6489 50.9828 30.7954 51.8838 30.7605 52.7871C30.7605 55.0033 30.1411 56.7347 28.8336 58.0505C28.1525 58.7141 27.3424 59.2289 26.4543 59.5626C25.5661 59.8963 24.6191 60.0417 23.6725 59.9897C21.608 59.9897 19.8876 59.3664 18.649 58.1198C17.4254 56.7539 16.7615 54.9722 16.7909 53.1334ZM13.3502 59.7819V50.7787L13.4878 48.0777H13.419L13.0061 49.4628L8.12021 59.7819H7.08798L2.27091 49.6013C2.13328 49.3935 1.99564 48.9088 1.85801 48.1469H1.72038L1.7892 50.9172V59.8512H0V46.2078H2.54617L6.88153 55.4881L7.56969 57.1502H7.6385L8.32665 55.4188L12.7308 46.1385H15.2082V59.7127H13.3502V59.7819ZM70.1916 57.1502C70.7356 57.5459 71.3399 57.85 71.9808 58.0505C72.7378 58.2583 73.426 58.3968 74.0453 58.3968C76.0409 58.3968 77.0732 57.7043 77.0732 56.3884C77.0732 56.0421 76.9355 55.6958 76.7291 55.4188C76.5226 55.1418 76.2474 54.8648 75.8345 54.657L73.7012 53.6182C72.2561 52.9256 71.2927 52.3716 70.8798 51.7482C70.3981 51.1942 70.1916 50.5016 70.1916 49.8091C70.1916 48.701 70.6733 47.8699 71.6368 47.1774C72.7346 46.508 74.0009 46.1713 75.284 46.2078C76.7291 46.2078 77.7613 46.3463 78.4495 46.6926V48.5625C77.4501 47.9732 76.3037 47.6848 75.1463 47.7314C74.2517 47.7314 73.5636 47.8699 73.0131 48.2162C72.4625 48.5625 72.1873 49.0473 72.1873 49.6013C72.1873 50.1554 72.3937 50.5709 72.7378 50.9172C73.5208 51.4525 74.3499 51.9161 75.2152 52.3023C76.5915 52.9256 77.6237 53.5489 78.1742 54.1722C78.7247 54.7955 79 55.4881 79 56.2499C79 57.4272 78.5183 58.3276 77.6237 58.9509C76.4788 59.6224 75.1613 59.9358 73.8388 59.8512L71.8432 59.6434C71.2652 59.5555 70.7065 59.3681 70.1916 59.0894V57.1502Z" fill="black"/>
<path fill-rule="evenodd" clip-rule="evenodd" d="M22.1063 21.4242H15.8694C15.3843 21.4242 15.315 21.4242 15.315 21.9899V35C15.315 35.8485 14.5527 36.9091 13.3747 36.9091L9.42463 36.9798C8.87325 36.9798 8.34446 36.7563 7.95458 36.3585C7.5647 35.9607 7.34567 35.4212 7.34567 34.8586V33.5859C7.34567 33.303 7.27637 33.1616 6.99917 33.1616H0.346494C0.0692987 33.1616 0 33.303 0 33.5859V35.2121C0 38.1818 2.70265 41.4343 6.37548 41.4343H15.9387C19.8194 41.4343 22.5914 38.5354 22.5914 34.8586V22.0606C22.6607 21.5657 22.5221 21.4242 22.1063 21.4242ZM66.6654 21C72.6944 21 77.8225 23.899 79.7628 27.9293C80.1093 28.7071 79.6242 28.7071 79.2085 28.7071H72.14C71.7242 28.7071 71.5163 28.5657 71.3084 28.2121C70.7565 27.5196 70.0586 26.9629 69.2668 26.5834C68.475 26.2039 67.6095 26.0114 66.7347 26.0202C63.5469 26.0202 60.9829 28.4949 60.9829 31.4646C60.9829 34.4343 63.5469 36.9091 66.7347 36.9091C68.6057 36.9091 70.2689 36.0606 71.3084 34.7879C71.5856 34.4343 71.7935 34.2929 72.2093 34.2929H79.347C79.8321 34.2929 80.1786 34.4343 79.9014 35C77.9611 39.101 72.833 42 66.7347 42C59.0425 42 52.8056 37.2626 52.8056 31.4646C52.7363 25.7374 58.9732 21 66.6654 21ZM37.9757 28.2828L30.3528 41.2929C30.2142 41.5758 30.1449 41.5758 29.9371 41.5758H23.0765C22.7993 41.5758 22.6607 41.4343 22.8686 41.0101L33.9564 22.4848C34.4415 21.7071 34.7187 21.5657 35.481 21.5657H41.302C42.2029 21.5657 42.3415 21.6364 42.8266 22.4848L53.7065 40.8687C54.1223 41.5758 54.1223 41.5758 53.1521 41.5758H47.331C46.5688 41.5758 46.4301 41.4343 46.153 40.9394L44.5591 38.2525H34.7187C34.095 38.2525 33.8871 38.3232 34.1643 37.8283L36.1739 34.3636C36.4511 33.798 36.5204 33.8687 37.2134 33.8687H41.995L38.738 28.2828C38.5301 27.7172 38.1836 27.7879 37.9757 28.2828Z" fill="#CC000E"/>
</svg>
